# xmcd
#
# Track frame offsets:
# 182
# 13060
# 24635
# 36415
# 49892
# 63620
# 76242
# 88122
# 101467
# 117680
# 131227
# 143280
# 157252
# 169702
# 181970
# 194070
# 206467
# 219305
#
# Disc length: 3092 seconds
#
#
# Revision: 2
# Processed by: cddbd v1.5.1PL0 Copyright (c) Steve Scherf et al.
# Submitted via: FreeRIP 2.91 
#
DISCID=090c1212
DTITLE=Big Bill Broonzy - Jazz and Blues Collection CD 34
DYEAR=1900
DGENRE=
TTITLE0=It's your Time
TTITLE1=Baby I Done Got Wise
TTITLE2=Just a Dream (on my mind)
TTITLE3=That's All Right Baby
TTITLE4=I.C. Blues
TTITLE5=Cotton Choppin' Blues
TTITLE6=My Last Goodbye to You
TTITLE7=Living on Easy Street
TTITLE8=The Southern Blues
TTITLE9=These Ants Keep Biting Me
TTITLE10=Pneumonia Blues (I keep on aching)
TTITLE11=Horny Frog
TTITLE12=Hattie Blues
TTITLE13=Midnight Steppers
TTITLE14=Hit the Right Lick
TTITLE15=That Number of Mine
TTITLE16=Rockin' Chair Blues
TTITLE17=Bad Acting Woman
EXTD=
EXTT0=
EXTT1=
EXTT2=
EXTT3=
EXTT4=
EXTT5=
EXTT6=
EXTT7=
EXTT8=
EXTT9=
EXTT10=
EXTT11=
EXTT12=
EXTT13=
EXTT14=
EXTT15=
EXTT16=
EXTT17=
PLAYORDER=
